# xmcd
#
# Track frame offsets:
#	150
#	1450
#	15121
#	17935
#	29861
#	31970
#	51332
#	53207
#	76934
#	79616
#	105487
#	105905
#	115732
#	117946
#	130111
#	131576
#	144853
#	145864
#	160272
#	161926
#	173007
#	173361
#	186060
#	187772
#	204909
#
# Disc length: 2744 seconds
# Revision: 0
# Processed by: cddbd v1.5.2PL0 Copyright (c) Steve Scherf et al.
# Submitted via: dBpowerAMP V12.0
#
DISCID=340ab619
DTITLE=Various Artist - The All-Star Jam - Live at Graves Mountain
DYEAR=2010
DGENRE=Bluegrass
TTITLE0=Various Artist - Intro By Kyle Cantrell: Welcome
TTITLE1=Crowe Brothers - More Pretty Girls Than One
TTITLE2=Various Artist - Intro By Andy Ball
TTITLE3=The Lonesome River Band - Hold Whatcha Got
TTITLE4=Lou Reid - Intro By Lou Reid
TTITLE5=Lou Reid - Lonesome River
TTITLE6=Audie Blaylock - Intro By Audie Blaylock
TTITLE7=Audie Blaylock - Old Dangerfield
TTITLE8=Carl Jackson - Intro By Carl Jackson
TTITLE9=Various Artist - Graves Mountain Memories
TTITLE10=Various Artist - Intro By Kyle Cantrell
TTITLE11=Various Artist - Head Over Heels
TTITLE12=Audie Blaylock - Intro By Audie Blaylock and Russell Moore
TTITLE13=Audie Blaylock - Once More
TTITLE14=Various Artist - Intro By Brandon Rickman
TTITLE15=Various Artist - Ground Speed
TTITLE16=Josh Crowe - Intro By Josh Crowe
TTITLE17=Crowe Brothers - When I Stop Dreaming
TTITLE18=Audie Blaylock - Intro By Audie Blaylock
TTITLE19=Audie Blaylock - Get In Line Brother
TTITLE20=Sammy Shelor - Intro By Sammy Shelor
TTITLE21=Various Artist - Home Sweet Home
TTITLE22=Sammy Shelor - Intro By Sammy Shelor
TTITLE23=The Lonesome River Band - Roll In My Sweet Baby's Arm's
TTITLE24=Various Artist - Closing Remarks By Kyle Cantrell
EXTD=
EXTT0=
EXTT1=
EXTT2=
EXTT3=
EXTT4=
EXTT5=
EXTT6=
EXTT7=
EXTT8=
EXTT9=
EXTT10=
EXTT11=
EXTT12=
EXTT13=
EXTT14=
EXTT15=
EXTT16=
EXTT17=
EXTT18=
EXTT19=
EXTT20=
EXTT21=
EXTT22=
EXTT23=
EXTT24=
PLAYORDER=
